<svg width="32" height="32" viewBox="0 0 32 32" fill="none" xmlns="http://www.w3.org/2000/svg">
<rect width="32" height="32" rx="16" fill="white"/>
<path d="M16.1 12.4062C14.1 12.4062 12.5062 14.0312 12.5062 16C12.5062 18 14.1 19.5938 16.1 19.5938C18.0687 19.5938 19.6937 18 19.6937 16C19.6937 14.0312 18.0687 12.4062 16.1 12.4062ZM16.1 18.3438C14.8187 18.3438 13.7562 17.3125 13.7562 16C13.7562 14.7188 14.7875 13.6875 16.1 13.6875C17.3812 13.6875 18.4125 14.7188 18.4125 16C18.4125 17.3125 17.3812 18.3438 16.1 18.3438ZM20.6625 12.2812C20.6625 11.8125 20.2875 11.4375 19.8187 11.4375C19.35 11.4375 18.975 11.8125 18.975 12.2812C18.975 12.75 19.35 13.125 19.8187 13.125C20.2875 13.125 20.6625 12.75 20.6625 12.2812ZM23.0375 13.125C22.975 12 22.725 11 21.9125 10.1875C21.1 9.375 20.1 9.125 18.975 9.0625C17.8187 9 14.35 9 13.1937 9.0625C12.0687 9.125 11.1 9.375 10.2562 10.1875C9.44375 11 9.19375 12 9.13125 13.125C9.06875 14.2812 9.06875 17.75 9.13125 18.9062C9.19375 20.0312 9.44375 21 10.2562 21.8438C11.1 22.6562 12.0687 22.9062 13.1937 22.9688C14.35 23.0312 17.8187 23.0312 18.975 22.9688C20.1 22.9062 21.1 22.6562 21.9125 21.8438C22.725 21 22.975 20.0312 23.0375 18.9062C23.1 17.75 23.1 14.2812 23.0375 13.125ZM21.5375 20.125C21.3187 20.75 20.8187 21.2188 20.225 21.4688C19.2875 21.8438 17.1 21.75 16.1 21.75C15.0687 21.75 12.8812 21.8438 11.975 21.4688C11.35 21.2188 10.8812 20.75 10.6312 20.125C10.2562 19.2188 10.35 17.0312 10.35 16C10.35 15 10.2562 12.8125 10.6312 11.875C10.8812 11.2812 11.35 10.8125 11.975 10.5625C12.8812 10.1875 15.0687 10.2812 16.1 10.2812C17.1 10.2812 19.2875 10.1875 20.225 10.5625C20.8187 10.7812 21.2875 11.2812 21.5375 11.875C21.9125 12.8125 21.8187 15 21.8187 16C21.8187 17.0312 21.9125 19.2188 21.5375 20.125Z" fill="#04113D"/>
</svg>
