<svg width="32" height="32" viewBox="0 0 32 32" fill="none" xmlns="http://www.w3.org/2000/svg">
<rect width="32" height="32" rx="16" fill="white"/>
<path d="M22.4438 12.75C23.0688 12.2812 23.6313 11.7188 24.0688 11.0625C23.5063 11.3125 22.85 11.5 22.1938 11.5625C22.8813 11.1562 23.3813 10.5312 23.6313 9.75C23.0063 10.125 22.2875 10.4062 21.5688 10.5625C20.9438 9.90625 20.1 9.53125 19.1625 9.53125C17.35 9.53125 15.8813 11 15.8813 12.8125C15.8813 13.0625 15.9125 13.3125 15.975 13.5625C13.2563 13.4062 10.8188 12.0938 9.19375 10.125C8.9125 10.5938 8.75625 11.1562 8.75625 11.7812C8.75625 12.9062 9.31875 13.9062 10.225 14.5C9.69375 14.4688 9.1625 14.3438 8.725 14.0938V14.125C8.725 15.7188 9.85 17.0312 11.35 17.3438C11.1 17.4062 10.7875 17.4688 10.5063 17.4688C10.2875 17.4688 10.1 17.4375 9.88125 17.4062C10.2875 18.7188 11.5063 19.6562 12.9438 19.6875C11.8188 20.5625 10.4125 21.0938 8.88125 21.0938C8.6 21.0938 8.35 21.0625 8.1 21.0312C9.5375 21.9688 11.2563 22.5 13.1313 22.5C19.1625 22.5 22.4438 17.5312 22.4438 13.1875C22.4438 13.0312 22.4438 12.9062 22.4438 12.75Z" fill="#04113D"/>
</svg>
