<svg width="32" height="32" viewBox="0 0 32 32" fill="none" xmlns="http://www.w3.org/2000/svg">
<rect width="32" height="32" rx="16" fill="white"/>
<path d="M24.2563 11.9062C24.0688 11.1562 23.475 10.5625 22.7563 10.375C21.4125 10 16.1 10 16.1 10C16.1 10 10.7563 10 9.4125 10.375C8.69375 10.5625 8.1 11.1562 7.9125 11.9062C7.5375 13.2188 7.5375 16.0312 7.5375 16.0312C7.5375 16.0312 7.5375 18.8125 7.9125 20.1562C8.1 20.9062 8.69375 21.4688 9.4125 21.6562C10.7563 22 16.1 22 16.1 22C16.1 22 21.4125 22 22.7563 21.6562C23.475 21.4688 24.0688 20.9062 24.2563 20.1562C24.6313 18.8125 24.6313 16.0312 24.6313 16.0312C24.6313 16.0312 24.6313 13.2188 24.2563 11.9062ZM14.35 18.5625V13.5L18.7875 16.0312L14.35 18.5625Z" fill="#04113D"/>
</svg>
