<svg width="88" height="40" viewBox="0 0 88 40" fill="none" xmlns="http://www.w3.org/2000/svg">
<g clip-path="url(#clip0_60_2)">
<path fill-rule="evenodd" clip-rule="evenodd" d="M5.48421 5.95283L8.79517 11.7167H5.88153L3.23276 7.29327L1.6435 9.43797L0.848869 7.96349L2.83544 5.41666L1.24618 2.73578C0.848869 2.73578 0.451554 2.46769 0.186677 2.06556C-0.210638 1.39534 0.0542389 0.591072 0.716431 0.18894C1.37862 -0.213192 2.17325 0.0548966 2.57057 0.725116C2.83544 1.12725 2.83544 1.66342 2.57057 1.93151L4.15983 4.61239L7.47079 4.21026L8.26542 5.68474L5.48421 5.95283Z" fill="#EFB810"/>
<path fill-rule="evenodd" clip-rule="evenodd" d="M20.9795 5.95283L17.6686 11.7167H20.5822L23.231 7.29327L24.8203 9.43797L25.6149 7.96349L23.6283 5.41666L25.2176 2.73578C25.6149 2.73578 26.0122 2.46769 26.2771 2.06556C26.6744 1.39534 26.4095 0.591072 25.7473 0.18894C25.0851 -0.213192 24.2905 0.0548966 23.8932 0.725116C23.6283 1.12725 23.6283 1.66342 23.8932 1.93151L22.3039 4.61239L18.993 4.21026L18.1983 5.68474L20.9795 5.95283Z" fill="#EFB810"/>
<path fill-rule="evenodd" clip-rule="evenodd" d="M20.5821 14.6657L13.1656 12.655L5.74902 14.6657V27.936C5.74902 29.2765 6.41122 30.4829 7.47072 31.4212C7.60316 31.5552 7.7356 31.5552 7.7356 31.6893L13.0331 35.4425L18.3307 31.6893C18.4631 31.5552 18.5955 31.5552 18.5955 31.4212C19.6551 30.6169 20.3172 29.4105 20.3172 27.936V27.5339V24.853V24.719H11.5763V25.7913V27.5339H17.4036V27.936C17.4036 28.3382 17.1387 28.7403 16.8738 29.0084C16.7414 29.0084 16.7414 29.1424 16.609 29.1424L13.0331 31.6893L9.4573 29.1424C9.32486 29.1424 9.32486 29.0084 9.19242 29.0084C8.79511 28.7403 8.66267 28.3382 8.66267 27.936V16.9444L13.0331 15.738L17.536 16.9444V18.687H20.4497C20.4497 17.3466 20.4497 16.0061 20.4497 14.7997L20.5821 14.6657Z" fill="#EFB810"/>
<path fill-rule="evenodd" clip-rule="evenodd" d="M19.92 15.2019L13.1656 13.4593L6.5437 15.2019V27.936C6.5437 29.0084 7.07345 30.0807 8.00052 30.751C8.13296 30.885 8.2654 30.885 8.2654 31.019L13.1656 34.5042L18.0658 31.019C18.1983 30.885 18.3307 30.885 18.3307 30.751C19.2578 30.0807 19.7875 29.0084 19.7875 27.936V26.8637V25.3892H12.371V26.8637H18.1983V27.936C18.1983 28.6063 17.9334 29.2765 17.4036 29.6786C17.2712 29.6786 17.2712 29.8127 17.1388 29.8127L13.1656 32.6276L9.19247 29.8127C9.06003 29.8127 9.06003 29.6786 8.92759 29.6786C8.39784 29.2765 8.13296 28.6063 8.13296 27.936V16.4083L13.2981 15.0678L18.4632 16.4083V17.8827H20.0524C20.0524 16.9444 20.0524 16.1402 20.0524 15.2019H19.92Z" fill="#EFB810"/>
<path fill-rule="evenodd" clip-rule="evenodd" d="M24.5553 26.7297V27.1318V27.5339V27.668C24.5553 30.3489 23.2309 32.7617 21.2443 34.2361C21.1119 34.3702 20.9794 34.5042 20.7145 34.6383L13.0331 40L5.3517 34.6383C5.21926 34.5042 5.08682 34.3702 4.82194 34.2361C2.83537 32.7617 1.51099 30.3489 1.51099 27.668V27.5339V26.7297V25.2552V14.5317V11.5827V11.4487L12.9007 8.49969L24.2904 11.5827V14.5317V18.419H21.3767V13.7274L12.9007 11.4487L4.42463 13.7274V25.2552V27.802C4.42463 29.5446 5.3517 31.1531 6.67608 32.0914C6.80852 32.2255 6.94096 32.2255 6.94096 32.3595C8.92753 33.7 10.9141 35.0404 12.7682 36.5149C14.7548 35.1745 16.7414 33.834 18.5955 32.3595C18.728 32.2255 18.8604 32.2255 18.8604 32.0914C20.1848 31.1531 21.1119 29.5446 21.1119 27.802V27.1318V25.2552V24.4509H24.0255V25.2552V26.7297H24.5553Z" fill="#EFB810"/>
<path fill-rule="evenodd" clip-rule="evenodd" d="M23.893 25.2551H22.3038V27.802C22.3038 29.8126 21.3767 31.5552 19.7874 32.7616C19.655 32.8956 19.5226 32.8956 19.5226 33.0297C17.536 34.3701 15.5494 35.7106 13.6953 37.1851L13.2979 37.4531L12.9006 37.1851C10.9141 35.8446 8.92748 34.5042 7.07335 33.0297C6.94091 32.8956 6.80847 32.8956 6.80847 32.7616C5.21921 31.6892 4.29214 29.8126 4.29214 27.802V13.1912L13.4304 10.7784L22.5686 13.1912V17.7487H24.1579V11.9848L13.4304 9.16986L2.70288 11.9848V27.802C2.70288 30.2148 3.89483 32.3595 5.74896 33.834C5.8814 33.968 6.01384 34.102 6.14628 34.102L13.4304 39.1957L20.7145 34.102C20.8469 33.968 20.9794 33.834 21.1118 33.834C22.9659 32.3595 24.1579 30.2148 24.1579 27.802V25.2551H23.893Z" fill="#EFB810"/>
<path d="M30.6546 15.95C29.7678 15.1016 29.3243 13.7905 29.3243 12.0169C29.3243 10.2384 29.7678 8.92497 30.6546 8.0765C31.5462 7.22323 32.8812 6.7966 34.6596 6.7966H36.2631C37.3513 6.7966 38.3124 7.07942 39.1465 7.64507C39.9854 8.21072 40.4048 8.98489 40.4048 9.96758C40.4048 10.2504 40.3209 10.4541 40.1531 10.5788C39.9854 10.6986 39.8224 10.7585 39.6642 10.7585H38.8085C38.3675 10.7585 38.0248 10.4949 37.7803 9.96758C37.4256 9.21019 36.836 8.83149 36.0114 8.83149H34.7316C33.6817 8.83149 32.9699 9.05679 32.596 9.5074C32.2221 9.958 32.0351 10.7921 32.0351 12.0097C32.0351 13.2272 32.2221 14.0637 32.596 14.5191C32.9699 14.9697 33.6817 15.195 34.7316 15.195H36.1624C36.987 15.195 37.5742 14.8163 37.9241 14.0589C38.1686 13.5269 38.5137 13.2608 38.9595 13.2608H39.8152C40.0405 13.2608 40.2179 13.3447 40.3473 13.5125C40.4815 13.6802 40.5486 13.8624 40.5486 14.0589C40.5486 15.0416 40.1316 15.8158 39.2975 16.3815C38.4634 16.9423 37.5023 17.2227 36.4141 17.2227H34.6596C32.8812 17.2227 31.5462 16.7985 30.6546 15.95Z" fill="black"/>
<path d="M42.3212 16.2592C41.583 15.5593 41.2139 14.5527 41.2139 13.2392C41.2139 11.921 41.5854 10.9095 42.3284 10.2049C43.0714 9.49542 44.102 9.14069 45.4203 9.14069C46.7385 9.14069 47.7668 9.48583 48.505 10.1761C49.2432 10.8616 49.6123 11.8467 49.6123 13.1314V13.5412C49.6123 13.6707 49.5692 13.7785 49.4829 13.8648C49.4014 13.9463 49.2959 13.987 49.1665 13.987H43.7521C43.8 14.5767 43.9678 15.0057 44.2554 15.2741C44.5478 15.5426 45.0128 15.6768 45.6504 15.6768C46.2879 15.6768 46.7241 15.533 46.959 15.2454C47.1939 14.9577 47.4839 14.8115 47.8291 14.8067H48.9005C49.0299 14.8067 49.1353 14.8499 49.2168 14.9362C49.3031 15.0177 49.3463 15.1231 49.3463 15.2526C49.3463 16.6283 48.0352 17.3138 45.4131 17.309C44.09 17.309 43.0594 16.9591 42.3212 16.2592ZM43.7377 12.4699H47.0813C47.0333 11.3386 46.4773 10.7729 45.4131 10.7729C44.3537 10.7729 43.7952 11.3386 43.7377 12.4699Z" fill="black"/>
<path d="M50.7881 16.7266V9.73031C50.7881 9.60088 50.8288 9.49542 50.9103 9.41393C50.9966 9.32764 51.1021 9.2845 51.2267 9.2845H52.8374C52.962 9.2845 53.0651 9.32764 53.1465 9.41393C53.2328 9.49542 53.276 9.60088 53.276 9.73031V10.1833C54.1005 9.48823 54.9777 9.14069 55.9077 9.14069C56.8424 9.14069 57.6022 9.42591 58.187 9.99636C58.7719 10.562 59.0643 11.4296 59.0643 12.5993V16.7266C59.0643 16.8512 59.0211 16.9567 58.9349 17.043C58.8534 17.1245 58.7479 17.1652 58.6185 17.1652H57.015C56.8904 17.1652 56.7849 17.1245 56.6986 17.043C56.6171 16.9567 56.5764 16.8512 56.5764 16.7266V12.5993C56.5764 11.4536 56.1186 10.8808 55.203 10.8808C54.6038 10.8808 53.9615 11.2235 53.276 11.909V16.7266C53.276 16.8512 53.2328 16.9567 53.1465 17.043C53.0651 17.1245 52.962 17.1652 52.8374 17.1652H51.2267C51.1021 17.1652 50.9966 17.1245 50.9103 17.043C50.8288 16.9567 50.7881 16.8512 50.7881 16.7266Z" fill="black"/>
<path d="M64.4465 15.6049L65.4316 15.5186H65.6976C65.827 15.5186 65.9325 15.5593 66.014 15.6408C66.1003 15.7223 66.1434 15.8278 66.1434 15.9572V16.7266C66.1434 16.8321 66.1003 16.9279 66.014 17.0142C65.9325 17.0957 65.827 17.146 65.6976 17.1652C65.2087 17.2611 64.5711 17.309 63.7849 17.309C61.7237 17.309 60.6931 16.2305 60.6931 14.0733V7.29994C60.6931 7.17051 60.7338 7.06505 60.8153 6.98356C60.9016 6.89728 61.007 6.85413 61.1317 6.85413H62.7423C62.867 6.85413 62.97 6.89728 63.0515 6.98356C63.1378 7.06505 63.181 7.17051 63.181 7.29994V9.70155H65.1871C65.3117 9.70155 65.4148 9.74229 65.4963 9.82378C65.5826 9.90528 65.6257 10.0107 65.6257 10.1402V10.9958C65.6257 11.1252 65.5826 11.2307 65.4963 11.3122C65.4148 11.3937 65.3117 11.4344 65.1871 11.4344H63.181V14.0733C63.181 14.5623 63.296 14.941 63.5261 15.2094C63.7562 15.4731 64.063 15.6049 64.4465 15.6049Z" fill="black"/>
<path d="M72.6257 11.1109L71.5184 11.0677C70.8713 11.0677 70.2529 11.4224 69.6633 12.1319V16.7266C69.6633 16.856 69.6201 16.9615 69.5338 17.043C69.4524 17.1245 69.3493 17.1652 69.2247 17.1652H67.614C67.4846 17.1652 67.3791 17.1245 67.2976 17.043C67.2161 16.9615 67.1754 16.856 67.1754 16.7266V9.73031C67.1754 9.60088 67.2161 9.49542 67.2976 9.41393C67.3839 9.32764 67.4894 9.2845 67.614 9.2845H69.2247C69.3541 9.2845 69.4595 9.32764 69.541 9.41393C69.6225 9.49542 69.6633 9.60088 69.6633 9.73031V10.1833C70.1522 9.82858 70.622 9.56733 71.0726 9.39955C71.528 9.22698 72.1224 9.14069 72.8558 9.14069C72.9853 9.14069 73.0907 9.18384 73.1722 9.27012C73.2585 9.35161 73.3016 9.45468 73.3016 9.57931V10.6722C73.3016 10.8017 73.2585 10.9071 73.1722 10.9886C73.0907 11.0701 72.9853 11.1109 72.8558 11.1109H72.6257Z" fill="black"/>
<path d="M74.5493 16.6475C73.9166 16.2065 73.6002 15.5833 73.6002 14.778C73.6002 13.9727 73.9166 13.3543 74.5493 12.9229C75.1869 12.4914 76.0066 12.2757 77.0084 12.2757H79.3885C79.3885 11.7149 79.271 11.3242 79.0362 11.1037C78.8013 10.8832 78.389 10.7729 77.7994 10.7729C77.2146 10.7729 76.8023 10.9191 76.5626 11.2115C76.3278 11.4991 76.0377 11.643 75.6926 11.643H74.6212C74.4918 11.643 74.3839 11.6022 74.2977 11.5207C74.2162 11.4344 74.1754 11.329 74.1754 11.2043C74.1754 9.82858 75.4817 9.14069 78.0942 9.14069C79.2351 9.14069 80.1507 9.39715 80.841 9.91007C81.5312 10.4182 81.8764 11.2067 81.8764 12.2757V16.7266C81.8764 16.856 81.8356 16.9615 81.7541 17.043C81.6726 17.1245 81.5672 17.1652 81.4378 17.1652H80.05C79.9206 17.1652 79.8151 17.1245 79.7336 17.043C79.6521 16.9567 79.6114 16.8512 79.6114 16.7266V16.5037C78.854 17.0454 77.9792 17.3138 76.9869 17.309C75.9994 17.309 75.1869 17.0885 74.5493 16.6475ZM77.181 13.9079C76.8455 13.9079 76.5794 13.9894 76.3829 14.1524C76.1911 14.3154 76.0953 14.5263 76.0953 14.7852C76.0953 15.044 76.1959 15.2573 76.3973 15.4251C76.5986 15.5929 76.8838 15.6768 77.2529 15.6768C77.9911 15.6768 78.703 15.4611 79.3885 15.0297V13.9079H77.181Z" fill="black"/>
<path d="M83.5052 16.7266V7.29994C83.5052 7.17051 83.5459 7.06505 83.6274 6.98356C83.7137 6.89728 83.8191 6.85413 83.9438 6.85413H85.5544C85.6791 6.85413 85.7821 6.89728 85.8636 6.98356C85.9499 7.06505 85.993 7.17051 85.993 7.29994V16.7266C85.993 16.8512 85.9499 16.9567 85.8636 17.043C85.7821 17.1245 85.6791 17.1652 85.5544 17.1652H83.9438C83.8191 17.1652 83.7137 17.1245 83.6274 17.043C83.5459 16.9567 83.5052 16.8512 83.5052 16.7266Z" fill="black"/>
<path d="M34.2642 30.816C32.6727 30.816 31.4503 30.387 30.597 29.5289C29.7486 28.6708 29.3243 27.3598 29.3243 25.5957C29.3243 23.8269 29.7678 22.5182 30.6546 21.6697C31.5462 20.8165 32.8812 20.3898 34.6596 20.3898H36.2631C37.3225 20.3898 38.2764 20.6439 39.1249 21.152C39.9782 21.6554 40.4048 22.2857 40.4048 23.0431C40.4048 23.3259 40.3209 23.5297 40.1531 23.6543C39.9854 23.7741 39.8224 23.8341 39.6642 23.8341H38.8085C38.3963 23.8341 38.0679 23.5992 37.8234 23.1294C37.579 22.6596 36.975 22.4247 36.0114 22.4247H34.7316C33.6817 22.4247 32.9699 22.65 32.596 23.1006C32.2221 23.5512 32.0351 24.3805 32.0351 25.5885C32.0351 26.7965 32.2029 27.633 32.5385 28.098C32.874 28.5582 33.4732 28.7883 34.3361 28.7883H35.8101C36.5819 28.7883 37.1332 28.6421 37.4639 28.3497C37.7947 28.0525 37.9649 27.6282 37.9744 27.077H36.3494C36.1624 27.077 36.0019 27.0122 35.8676 26.8828C35.7382 26.7486 35.6735 26.588 35.6735 26.4011V25.8402C35.6735 25.6532 35.7382 25.4951 35.8676 25.3656C36.0019 25.2314 36.1624 25.1643 36.3494 25.1643H39.959C40.1459 25.1643 40.3041 25.2314 40.4336 25.3656C40.5678 25.4951 40.6349 25.6532 40.6349 25.8402V26.6383C40.6349 27.9806 40.2322 29.0136 39.4269 29.7374C38.6216 30.4565 37.4399 30.816 35.882 30.816H34.2642Z" fill="black"/>
<path d="M42.3212 30.2407C41.6884 29.7997 41.3721 29.1766 41.3721 28.3712C41.3721 27.5659 41.6884 26.9475 42.3212 26.5161C42.9588 26.0847 43.7785 25.869 44.7803 25.869H47.1604C47.1604 25.3081 47.0429 24.9174 46.808 24.6969C46.5731 24.4764 46.1609 24.3662 45.5713 24.3662C44.9865 24.3662 44.5742 24.5124 44.3345 24.8048C44.0996 25.0924 43.8096 25.2362 43.4645 25.2362H42.3931C42.2637 25.2362 42.1558 25.1955 42.0695 25.114C41.988 25.0277 41.9473 24.9222 41.9473 24.7976C41.9473 23.4218 43.2536 22.7339 45.8661 22.7339C47.007 22.7339 47.9226 22.9904 48.6128 23.5033C49.3031 24.0114 49.6483 24.8 49.6483 25.869V30.3198C49.6483 30.4493 49.6075 30.5547 49.526 30.6362C49.4445 30.7177 49.3391 30.7585 49.2096 30.7585H47.8219C47.6925 30.7585 47.587 30.7177 47.5055 30.6362C47.424 30.5499 47.3833 30.4445 47.3833 30.3198V30.0969C46.6259 30.6386 45.751 30.9071 44.7588 30.9023C43.7713 30.9023 42.9588 30.6818 42.3212 30.2407ZM44.9529 27.5012C44.6173 27.5012 44.3513 27.5827 44.1548 27.7457C43.963 27.9086 43.8671 28.1196 43.8671 28.3784C43.8671 28.6373 43.9678 28.8506 44.1691 29.0184C44.3705 29.1861 44.6557 29.27 45.0248 29.27C45.763 29.27 46.4749 29.0543 47.1604 28.6229V27.5012H44.9529Z" fill="black"/>
<path d="M51.277 30.3198V23.3235C51.277 23.1941 51.3178 23.0887 51.3993 23.0072C51.4856 22.9209 51.591 22.8777 51.7157 22.8777H53.3263C53.4557 22.8777 53.5612 22.9209 53.6427 23.0072C53.7242 23.0887 53.7649 23.1941 53.7649 23.3235V23.7765C54.1101 23.441 54.448 23.1845 54.7788 23.0072C55.1143 22.825 55.517 22.7339 55.9868 22.7339C57.1037 22.7339 57.9498 23.1941 58.525 24.1145C59.4166 23.1893 60.3298 22.7291 61.2646 22.7339C62.2041 22.7339 62.9447 23.0168 63.4864 23.5824C64.0329 24.1433 64.3061 25.0133 64.3061 26.1925V30.3198C64.3061 30.4493 64.2654 30.5547 64.1839 30.6362C64.1024 30.7177 63.9969 30.7585 63.8675 30.7585H62.264C62.1346 30.7585 62.0267 30.7177 61.9405 30.6362C61.859 30.5499 61.8182 30.4445 61.8182 30.3198V26.1925C61.8182 25.0421 61.4012 24.4692 60.5671 24.474C60.059 24.474 59.5341 24.8407 58.9924 25.5742C59.0211 25.7803 59.0355 25.9864 59.0355 26.1925V30.3198C59.0355 30.4493 58.9924 30.5547 58.9061 30.6362C58.8246 30.7177 58.7215 30.7585 58.5969 30.7585H56.9934C56.864 30.7585 56.7561 30.7177 56.6699 30.6362C56.5884 30.5499 56.5476 30.4445 56.5476 30.3198V26.1925C56.5476 25.0421 56.1306 24.4692 55.2965 24.474C54.7644 24.474 54.2539 24.8168 53.7649 25.5022V30.3198C53.7649 30.4493 53.7218 30.5547 53.6355 30.6362C53.554 30.7177 53.4509 30.7585 53.3263 30.7585H51.7157C51.5862 30.7585 51.4808 30.7177 51.3993 30.6362C51.3178 30.5547 51.277 30.4493 51.277 30.3198Z" fill="black"/>
<path d="M65.9277 21.3749V21.1305C65.9277 20.8764 65.9996 20.6751 66.1434 20.5265C66.292 20.3779 66.4957 20.3036 66.7546 20.3036H67.6462C67.9003 20.3036 68.1016 20.3779 68.2502 20.5265C68.3988 20.6703 68.4731 20.8716 68.4731 21.1305V21.3749C68.4731 21.629 68.3988 21.8303 68.2502 21.9789C68.1064 22.1275 67.9051 22.2018 67.6462 22.2018H66.7546C66.5005 22.2018 66.2992 22.1275 66.1506 21.9789C66.002 21.8303 65.9277 21.629 65.9277 21.3749ZM65.9565 30.3198V23.4961C65.9565 23.3667 65.9972 23.2612 66.0787 23.1797C66.165 23.0982 66.2704 23.0575 66.3951 23.0575H68.0057C68.1352 23.0575 68.2406 23.1006 68.3221 23.1869C68.4036 23.2684 68.4444 23.3715 68.4444 23.4961V30.3198C68.4444 30.4493 68.4012 30.5547 68.3149 30.6362C68.2334 30.7177 68.1304 30.7585 68.0057 30.7585H66.3951C66.2656 30.7585 66.1602 30.7177 66.0787 30.6362C65.9972 30.5547 65.9565 30.4493 65.9565 30.3198Z" fill="black"/>
<path d="M70.0947 30.3198V23.3235C70.0947 23.1941 70.1354 23.0887 70.2169 23.0072C70.3032 22.9209 70.4087 22.8777 70.5333 22.8777H72.144C72.2686 22.8777 72.3717 22.9209 72.4532 23.0072C72.5394 23.0887 72.5826 23.1941 72.5826 23.3235V23.7765C73.4071 23.0815 74.2843 22.7339 75.2143 22.7339C76.149 22.7339 76.9088 23.0192 77.4937 23.5896C78.0785 24.1552 78.3709 25.0229 78.3709 26.1925V30.3198C78.3709 30.4445 78.3278 30.5499 78.2415 30.6362C78.16 30.7177 78.0545 30.7585 77.9251 30.7585H76.3216C76.197 30.7585 76.0915 30.7177 76.0052 30.6362C75.9237 30.5499 75.883 30.4445 75.883 30.3198V26.1925C75.883 25.0469 75.4252 24.474 74.5096 24.474C73.9104 24.474 73.2681 24.8168 72.5826 25.5022V30.3198C72.5826 30.4445 72.5394 30.5499 72.4532 30.6362C72.3717 30.7177 72.2686 30.7585 72.144 30.7585H70.5333C70.4087 30.7585 70.3032 30.7177 70.2169 30.6362C70.1354 30.5499 70.0947 30.4445 70.0947 30.3198Z" fill="black"/>
<path d="M83.1923 30.1545C82.1042 30.1545 81.2245 29.8261 80.5534 29.1694C79.8871 28.5126 79.554 27.6019 79.554 26.437C79.554 25.2722 79.9351 24.3638 80.6972 23.7118C81.4594 23.0599 82.5524 22.7339 83.9761 22.7339C84.6712 22.7339 85.3926 22.813 86.1404 22.9712C86.8882 23.1246 87.4515 23.314 87.8302 23.5393V30.1976C87.8302 31.2666 87.4778 32.0551 86.7732 32.5633C86.0685 33.0762 85.0786 33.3326 83.8035 33.3326C82.5332 33.3326 81.5529 33.172 80.8626 32.8509C80.1771 32.5345 79.8344 32.0096 79.8344 31.2762C79.8344 31.1467 79.8751 31.0389 79.9566 30.9526C80.0429 30.8711 80.1508 30.8304 80.2802 30.8304H81.3516C81.6967 30.8304 81.9723 30.9574 82.1785 31.2115C82.4421 31.5374 82.9095 31.7004 83.5806 31.7004C84.2565 31.7004 84.7191 31.5902 84.9684 31.3696C85.2176 31.1491 85.3423 30.7585 85.3423 30.1976V29.8597C84.5753 30.0562 83.8586 30.1545 83.1923 30.1545ZM83.8251 24.474C82.689 24.4692 82.1208 25.1259 82.1208 26.4442C82.1208 27.7576 82.6746 28.4144 83.7819 28.4144C84.2421 28.4144 84.7622 28.3425 85.3423 28.1987V24.6322C84.93 24.522 84.4243 24.4692 83.8251 24.474Z" fill="black"/>
</g>
<defs>
<clipPath id="clip0_60_2">
<rect width="88" height="40" fill="white"/>
</clipPath>
</defs>
</svg>
