<svg width="46" height="69" viewBox="0 0 46 69" fill="none" xmlns="http://www.w3.org/2000/svg">
<g clip-path="url(#clip0_19_673)">
<path fill-rule="evenodd" clip-rule="evenodd" d="M9.61194 10.3501L15.3333 20.24H10.2985L5.7214 12.6501L2.97513 16.3301L1.60199 13.8001L5.03483 9.43008L2.28856 4.8301C1.60199 4.8301 0.915425 4.3701 0.457713 3.68011C-0.228854 2.53011 0.228857 1.15012 1.37314 0.460118C2.51741 -0.229879 3.89055 0.230119 4.57712 1.38011C5.03483 2.07011 5.03483 2.99011 4.57712 3.45011L7.32339 8.05009L13.0448 7.36009L14.4179 9.89008L9.61194 10.3501Z" fill="#EFB810"/>
<path fill-rule="evenodd" clip-rule="evenodd" d="M36.3881 10.3501L30.6667 20.24H35.7015L40.2786 12.6501L43.0249 16.3301L44.398 13.8001L40.9652 9.43008L43.7115 4.8301C44.398 4.8301 45.0846 4.3701 45.5423 3.68011C46.2289 2.53011 45.7712 1.15012 44.6269 0.460118C43.4826 -0.229879 42.1095 0.230119 41.4229 1.38011C40.9652 2.07011 40.9652 2.99011 41.4229 3.45011L38.6766 8.05009L32.9552 7.36009L31.5821 9.89008L36.3881 10.3501Z" fill="#EFB810"/>
<path fill-rule="evenodd" clip-rule="evenodd" d="M35.7015 25.3L22.8856 21.85L10.0696 25.3V48.0699C10.0696 50.3699 11.2139 52.4399 13.0448 54.0499C13.2736 54.2799 13.5025 54.2799 13.5025 54.5099L22.6567 60.9499L31.8109 54.5099C32.0398 54.2799 32.2686 54.2799 32.2686 54.0499C34.0995 52.6699 35.2438 50.5999 35.2438 48.0699V47.3799V42.78V42.55H20.1393V44.3899V47.3799H30.2089V48.0699C30.2089 48.7599 29.7512 49.4499 29.2935 49.9099C29.0647 49.9099 29.0647 50.1399 28.8358 50.1399L22.6567 54.5099L16.4776 50.1399C16.2487 50.1399 16.2487 49.9099 16.0199 49.9099C15.3333 49.4499 15.1045 48.7599 15.1045 48.0699V29.21L22.6567 27.14L30.4378 29.21V32.2H35.4726C35.4726 29.9 35.4726 27.6 35.4726 25.53L35.7015 25.3Z" fill="#EFB810"/>
<path fill-rule="evenodd" clip-rule="evenodd" d="M34.5572 26.22L22.8856 23.23L11.4428 26.22V48.0699C11.4428 49.9099 12.3582 51.7499 13.9602 52.8999C14.1891 53.1299 14.4179 53.1299 14.4179 53.3599L22.8856 59.3399L31.3533 53.3599C31.5821 53.1299 31.811 53.1299 31.811 52.8999C33.413 51.7499 34.3284 49.9099 34.3284 48.0699V46.2299V43.7H21.5125V46.2299H31.5821V48.0699C31.5821 49.2199 31.1244 50.3699 30.209 51.0599C29.9801 51.0599 29.9801 51.2899 29.7513 51.2899L22.8856 56.1199L16.0199 51.2899C15.7911 51.2899 15.7911 51.0599 15.5622 51.0599C14.6468 50.3699 14.1891 49.2199 14.1891 48.0699V28.29L23.1145 25.99L32.0398 28.29V30.82H34.7861C34.7861 29.21 34.7861 27.83 34.7861 26.22H34.5572Z" fill="#EFB810"/>
<path fill-rule="evenodd" clip-rule="evenodd" d="M42.5672 45.9999V46.6899V47.3799V47.6099C42.5672 52.2099 40.2786 56.3499 36.8458 58.8799C36.6169 59.1099 36.3881 59.3399 35.9304 59.5699L22.6567 68.7698L9.38309 59.5699C9.15424 59.3399 8.92538 59.1099 8.46767 58.8799C5.03483 56.3499 2.74628 52.2099 2.74628 47.6099V47.3799V45.9999V43.4699V25.07V20.01V19.78L22.4279 14.7201L42.1095 20.01V25.07V31.74H37.0746V23.69L22.4279 19.78L7.7811 23.69V43.4699V47.8399C7.7811 50.8299 9.38309 53.5899 11.6716 55.1999C11.9005 55.4299 12.1294 55.4299 12.1294 55.6599C15.5622 57.9599 18.995 60.2599 22.199 62.7899C25.6318 60.4899 29.0647 58.1899 32.2687 55.6599C32.4975 55.4299 32.7264 55.4299 32.7264 55.1999C35.0149 53.5899 36.6169 50.8299 36.6169 47.8399V46.6899V43.4699V42.09H41.6517V43.4699V45.9999H42.5672Z" fill="#EFB810"/>
<path fill-rule="evenodd" clip-rule="evenodd" d="M41.4229 43.4699H38.6766V47.8399C38.6766 51.2899 37.0746 54.2799 34.3284 56.3499C34.0995 56.5799 33.8706 56.5799 33.8706 56.8099C30.4378 59.1099 27.005 61.4099 23.801 63.9399L23.1144 64.3999L22.4279 63.9399C18.995 61.6399 15.5622 59.3399 12.3582 56.8099C12.1294 56.5799 11.9005 56.5799 11.9005 56.3499C9.15423 54.5099 7.55224 51.2899 7.55224 47.8399V22.77L23.3433 18.63L39.1343 22.77V30.59H41.8806V20.7L23.3433 15.8701L4.80597 20.7V47.8399C4.80597 51.9799 6.86567 55.6599 10.0697 58.1899C10.2985 58.4199 10.5274 58.6499 10.7562 58.6499L23.3433 67.3899L35.9303 58.6499C36.1592 58.4199 36.3881 58.1899 36.6169 58.1899C39.8209 55.6599 41.8806 51.9799 41.8806 47.8399V43.4699H41.4229Z" fill="#EFB810"/>
</g>
<defs>
<clipPath id="clip0_19_673">
<rect width="46" height="69" fill="white"/>
</clipPath>
</defs>
</svg>
