<svg width="228" height="50" viewBox="0 0 228 50" fill="none" xmlns="http://www.w3.org/2000/svg">
<path d="M37.1094 2.57812C35.2812 1.82812 33.4531 1.5 31.625 1.5C25.8594 1.5 20.0938 4.45312 14.3281 4.45312C12.875 4.45312 11.4219 4.26562 9.96875 3.79688C9.82812 3.75 9.64062 3.70312 9.5 3.70312C8.70312 3.70312 8 4.35938 8 5.20312V20.1094C8 20.6719 8.32812 21.2344 8.84375 21.4688C10.6719 22.2188 12.5 22.5 14.3281 22.5C20.0938 22.5 25.8594 19.5938 31.625 19.5938C33.0781 19.5938 34.5312 19.7812 35.9844 20.25C36.125 20.2969 36.3125 20.2969 36.4531 20.2969C37.25 20.2969 38 19.6875 38 18.8438V3.9375C38 3.375 37.625 2.8125 37.1094 2.57812ZM10.25 6.23438C11.1875 6.46875 12.1719 6.5625 13.1562 6.65625C12.875 8.01562 11.7031 9.04688 10.25 9.04688V6.23438ZM10.25 19.5938V17.3438C11.8438 17.3438 13.1562 18.6094 13.2031 20.2031C12.1719 20.1562 11.1875 19.9219 10.25 19.5938ZM23 16.5C20.8906 16.5 19.25 14.5312 19.25 12C19.25 9.51562 20.8906 7.5 23 7.5C25.0625 7.5 26.75 9.51562 26.75 12C26.75 14.5312 25.0625 16.5 23 16.5ZM35.75 17.8125C34.9062 17.625 34.0625 17.4844 33.1719 17.4375C33.4531 16.2188 34.4844 15.2812 35.75 15.1406V17.8125ZM35.75 6.75C34.2969 6.5625 33.1719 5.34375 33.125 3.89062C34.0156 3.98438 34.9062 4.17188 35.75 4.45312V6.75Z" fill="white"/>
<path d="M68.0312 10.875L67.8906 10.2188C67.7969 10.5 67.6094 10.9688 67.6562 10.9219C67.6562 10.9219 67.0469 12.5625 66.9062 12.9844H68.4531C68.3594 12.6094 68.0312 10.875 68.0312 10.875ZM73 3.75C73 2.53125 71.9688 1.5 70.75 1.5H48.25C46.9844 1.5 46 2.53125 46 3.75V20.25C46 21.5156 46.9844 22.5 48.25 22.5H70.75C71.9688 22.5 73 21.5156 73 20.25V3.75ZM53.125 15.5625H51.1562L49.4688 9.23438C48.8594 8.85938 48.2031 8.625 47.5 8.4375V8.25H50.5469C50.9688 8.29688 51.2969 8.4375 51.3906 8.90625L52.0469 12.2344L52.2344 13.2188L54.1094 8.25H56.0781L53.125 15.5625ZM57.5312 15.5625H55.6562L56.8281 8.25H58.75L57.5312 15.5625ZM64.0938 13.1719C64.0938 14.6719 62.8281 15.6562 60.8125 15.6562C59.9688 15.6562 59.1719 15.4688 58.75 15.2812L58.9844 13.6406L59.2188 13.7344C59.875 14.0156 60.25 14.1562 61 14.1562C61.5625 14.1562 62.125 13.9219 62.125 13.4062C62.125 13.125 61.8906 12.8906 61.1406 12.5156C60.4375 12.1875 59.5 11.5781 59.5 10.5469C59.5 9.14062 60.8125 8.15625 62.6875 8.15625C63.4375 8.15625 64 8.29688 64.375 8.4375L64.1406 10.0312L63.9531 9.9375C63.625 9.79688 63.1562 9.65625 62.5469 9.65625C61.7969 9.65625 61.4688 9.98438 61.4688 10.3125C61.4688 10.6406 61.8906 10.875 62.5469 11.2031C63.625 11.7188 64.1406 12.3281 64.0938 13.1719ZM70.75 15.5625H68.9688C68.9688 15.5625 68.8281 14.7188 68.7812 14.4844H66.3438C66.25 14.6719 65.9688 15.5625 65.9688 15.5625H63.9531L66.7656 8.85938C66.9531 8.39062 67.2812 8.25 67.75 8.25H69.2031L70.75 15.5625Z" fill="white"/>
<path d="M103.594 19.2656C103.594 18.9375 103.406 18.7031 103.078 18.7031C102.75 18.7031 102.562 18.9375 102.562 19.2656C102.562 19.5469 102.75 19.7812 103.078 19.7812C103.406 19.7812 103.594 19.5938 103.594 19.2656ZM89.0625 18.7031C88.7344 18.7031 88.5 18.9375 88.5 19.2656C88.5 19.5469 88.7344 19.7812 89.0625 19.7812C89.3438 19.7812 89.5781 19.5938 89.5781 19.2656C89.5312 18.9375 89.3438 18.7031 89.0625 18.7031ZM94.5469 18.7031C94.3125 18.7031 94.125 18.8438 94.125 19.0781H95.0156C94.9688 18.8438 94.7812 18.7031 94.5469 18.7031ZM99.6094 18.7031C99.2812 18.7031 99.0938 18.9375 99.0938 19.2656C99.0938 19.5469 99.2812 19.7812 99.6094 19.7812C99.9375 19.7812 100.125 19.5938 100.125 19.2656C100.125 18.9375 99.9375 18.7031 99.6094 18.7031ZM104.578 19.9219C104.578 19.9219 104.578 19.875 104.531 19.875C104.531 19.875 104.531 19.875 104.484 19.875C104.484 19.8281 104.484 19.8281 104.438 19.8281C104.438 19.8281 104.438 19.8281 104.391 19.875C104.391 19.875 104.391 19.875 104.344 19.875V19.9219C104.297 19.9219 104.297 19.9688 104.297 19.9688C104.297 20.0156 104.297 20.0156 104.344 20.0156C104.344 20.0625 104.344 20.0625 104.344 20.0625C104.391 20.0625 104.391 20.1094 104.391 20.1094C104.438 20.1094 104.438 20.1094 104.438 20.1094C104.484 20.1094 104.484 20.1094 104.484 20.1094C104.531 20.1094 104.531 20.0625 104.531 20.0625C104.578 20.0625 104.578 20.0625 104.578 20.0156C104.578 20.0156 104.578 20.0156 104.578 19.9688V19.9219ZM104.484 20.0156L104.531 20.0625H104.484L104.438 19.9688V20.0625H104.391V19.875H104.438C104.484 19.875 104.484 19.9219 104.484 19.9219C104.531 19.9219 104.531 19.9219 104.531 19.9219C104.531 19.9688 104.531 19.9688 104.484 19.9688V20.0156ZM108 3.79688C108 2.57812 106.969 1.54688 105.75 1.54688H83.25C81.9844 1.54688 81 2.57812 81 3.79688V20.2969C81 21.5625 81.9844 22.5469 83.25 22.5469H105.75C106.969 22.5469 108 21.5625 108 20.2969V3.79688ZM84 10.3594C84 6.79688 86.9062 3.89062 90.4688 3.89062C91.7344 3.89062 93 4.26562 94.0781 4.96875C90.6562 7.73438 90.6562 12.9844 94.0781 15.75C93 16.4531 91.7344 16.875 90.4688 16.875C86.9062 16.875 84 13.9688 84 10.3594ZM94.5 15.4688C91.1719 12.8906 91.1719 7.875 94.5 5.25C97.7812 7.875 97.7812 12.8906 94.5 15.4688ZM87.7969 19.0312V20.1094H87.4219C87.4219 19.1719 87.5156 18.7031 87.0469 18.7031C86.5312 18.7031 86.625 19.2656 86.625 20.1094H86.25C86.25 19.1719 86.3438 18.7031 85.875 18.7031C85.3125 18.7031 85.4531 19.2188 85.4531 20.1094H85.0781V18.375H85.4531V18.6094C85.5938 18.4219 85.7812 18.3281 85.9688 18.3281C86.2031 18.3281 86.3906 18.4688 86.5312 18.6562C86.6719 18.4219 86.9062 18.3281 87.1406 18.3281C87.5625 18.375 87.7969 18.6094 87.7969 19.0312ZM89.9062 18.375V20.1094H89.5312V19.9219C89.4375 20.0625 89.25 20.1562 89.0156 20.1562C88.5 20.1562 88.125 19.7812 88.125 19.2656C88.125 18.75 88.5 18.3281 89.0156 18.3281C89.25 18.3281 89.4375 18.4688 89.5312 18.6094V18.375H89.9062ZM91.8281 19.5938C91.8281 20.25 90.7969 20.2969 90.2812 19.9688L90.4688 19.6406C90.7969 19.875 91.4062 19.9219 91.4062 19.5938C91.4062 19.3125 90.3281 19.5938 90.3281 18.8906C90.3281 18.2344 91.3125 18.2344 91.7812 18.5156L91.5938 18.8438C91.3125 18.6562 90.75 18.6094 90.75 18.8906C90.75 19.2188 91.8281 18.8906 91.8281 19.5938ZM93.4688 20.0156C93.2344 20.2031 92.3906 20.3438 92.3906 19.5V18.75H92.0625V18.375H92.3906V17.8594H92.8125V18.375H93.4219V18.75H92.8125V19.5C92.8125 19.9219 93.1875 19.8281 93.375 19.7344L93.4688 20.0156ZM94.0781 19.4062C94.2188 19.9219 94.7344 19.9219 95.1094 19.6406L95.2969 19.9219C94.7812 20.3906 93.7031 20.2031 93.7031 19.2656C93.7031 18.7031 94.0781 18.3281 94.5469 18.3281C95.0156 18.3281 95.3906 18.6562 95.3906 19.4062H94.0781ZM96.8438 18.375L96.75 18.75C96.6094 18.6562 96.1406 18.6094 96.1406 19.125V20.1094H95.7656V18.375H96.1406V18.6094C96.3281 18.3281 96.6562 18.2812 96.8438 18.375ZM97.3594 19.2656C97.3594 19.7812 97.9219 19.9688 98.3438 19.6406L98.5312 19.9688C98.0156 20.3906 96.9844 20.2031 96.9844 19.2656C96.9844 18.375 97.9688 18.1406 98.5312 18.5625L98.3438 18.8438C97.9219 18.5625 97.3594 18.7031 97.3594 19.2656ZM100.5 18.375V20.1094H100.125V19.9219C99.75 20.3906 98.7188 20.1562 98.7188 19.2656C98.7188 18.375 99.7031 18.0938 100.125 18.6094V18.375H100.5ZM102.047 18.375L101.953 18.75C101.766 18.6562 101.344 18.6094 101.344 19.125V20.1094H100.969V18.375H101.344V18.6094C101.531 18.2812 101.953 18.3281 102.047 18.375ZM103.969 17.7188V20.1094H103.594V19.9219C103.219 20.3906 102.188 20.1562 102.188 19.2656C102.188 18.375 103.219 18.0938 103.594 18.6094V17.7188H103.969ZM104.297 14.1562H104.203H104.438H104.344V14.3906H104.297V14.1562ZM104.625 19.9688C104.625 20.0156 104.625 20.0156 104.625 20.0625C104.578 20.0625 104.578 20.0625 104.578 20.1094C104.578 20.1094 104.531 20.1094 104.531 20.1562C104.484 20.1562 104.484 20.1562 104.438 20.1562H104.391C104.344 20.1094 104.344 20.1094 104.344 20.1094C104.297 20.0625 104.297 20.0625 104.297 20.0625C104.297 20.0156 104.297 20.0156 104.297 19.9688V19.9219C104.297 19.875 104.297 19.875 104.344 19.875C104.344 19.8281 104.344 19.8281 104.391 19.8281L104.438 19.7812C104.484 19.7812 104.484 19.8281 104.531 19.8281C104.531 19.8281 104.578 19.8281 104.578 19.875C104.578 19.875 104.578 19.875 104.625 19.9219V19.9688ZM104.766 14.1562V14.3906H104.719V14.2031L104.672 14.3438H104.625L104.531 14.2031V14.3906H104.484V14.1562H104.578L104.625 14.2969L104.719 14.1562H104.766ZM105 10.3594C105 13.9688 102.047 16.875 98.4844 16.8281C97.2188 16.8281 95.9531 16.4531 94.9219 15.75C98.3438 12.9844 98.2969 7.73438 94.9219 4.96875C95.9531 4.26562 97.2188 3.89062 98.4844 3.89062C102.047 3.89062 105 6.79688 105 10.3594Z" fill="white"/>
<path d="M127.203 3.75C122.656 3.75 118.953 7.45312 118.953 12C118.953 16.5469 122.656 20.25 127.203 20.25C131.75 20.25 135.453 16.5469 135.453 12C135.453 7.45312 131.75 3.75 127.203 3.75ZM125.328 16.875C123.406 16.125 122 14.25 122 12C122 9.79688 123.406 7.875 125.328 7.125V16.875ZM129.078 16.875V7.125C131.047 7.875 132.453 9.79688 132.453 12C132.453 14.25 131.047 16.125 129.078 16.875ZM140.75 1.5H118.25C116.984 1.5 116 2.53125 116 3.75V20.25C116 21.5156 116.984 22.5 118.25 22.5H140.75C141.969 22.5 143 21.5156 143 20.25V3.75C143 2.53125 141.969 1.5 140.75 1.5ZM131.422 21H127.203C122.234 21 118.109 17.0156 118.109 12.0938C118.109 6.75 122.234 3 127.203 3H131.422C136.344 3 140.844 6.75 140.844 12.0938C140.844 17.0156 136.344 21 131.422 21Z" fill="white"/>
<path d="M166.234 7.875C166.234 7.125 165.578 7.03125 164.922 7.03125H163.094V10.2656H163.891V9.09375H164.734C165.578 9.09375 165.391 9.5625 165.391 10.2656H166.188V9.60938C166.188 9.1875 166.094 8.90625 165.672 8.76562C166 8.625 166.234 8.25 166.234 7.875ZM164.828 8.4375H163.891V7.6875H164.875C165.109 7.6875 165.344 7.73438 165.344 8.0625C165.344 8.34375 165.109 8.4375 164.828 8.4375ZM164.078 12.6094H161.594L160.609 13.6875L159.625 12.6094H156.531V15.8438H159.578L160.562 14.7656L161.547 15.8438H163.047V14.7656C163.938 14.7656 165.344 15 165.344 13.6875C165.344 12.8438 164.781 12.6094 164.078 12.6094ZM159.203 15.1875H157.281V14.5312H158.969V13.875H157.281V13.2656H159.25L160.094 14.25L159.203 15.1875ZM162.297 15.5625L161.078 14.25L162.297 12.9375V15.5625ZM164.031 14.1094H163.047V13.2656H164.078C164.312 13.2656 164.547 13.4062 164.547 13.6875C164.547 13.9688 164.312 14.1094 164.031 14.1094ZM162.578 7.6875V7.03125H159.953V10.2656H162.578V9.60938H160.75V8.95312H162.531V8.29688H160.75V7.6875H162.578ZM178 12H177.953H178ZM168.859 13.5C168.859 12.7031 168.203 12.6094 167.594 12.6094H165.719V15.8438H166.516V14.6719H167.359C167.875 14.6719 168.016 14.7656 168.016 15.3281V15.8438H168.812V15.2344C168.812 14.8125 168.719 14.4844 168.297 14.3438C168.672 14.2031 168.859 13.8281 168.859 13.5ZM167.5 14.0156H166.516V13.2656H167.5C167.734 13.2656 168.016 13.3125 168.016 13.6406C168.016 13.9688 167.734 14.0156 167.5 14.0156ZM159.391 10.2656V7.03125H158.078L157.188 9.23438L156.156 7.03125H154.891V10.0781L153.578 7.03125H152.406L151.047 10.2656H151.844L152.172 9.5625H153.766L154.094 10.2656H155.688V7.73438L156.812 10.2656H157.469L158.594 7.73438V10.2656H159.391ZM152.453 8.85938L152.969 7.59375L153.484 8.85938H152.453ZM174.812 16.3125V16.125C174.297 16.3594 174.625 16.3125 167.453 16.3125C167.453 15.1406 167.5 15.1875 167.453 15.1406C167.406 15.1406 167.312 15.1406 167.031 15.1406C167.031 15.9844 167.031 15.4688 167.031 16.3125H165.156C165.156 15.75 165.156 15.6094 165.156 14.9531C164.688 15.2344 164.125 15.2344 163.562 15.2344C163.562 15.9375 163.562 15.6094 163.562 16.3125H161.266C161.031 16.0312 161.125 16.1719 160.562 15.5156C160.422 15.6562 159.953 16.1719 159.812 16.3125H155.969V12H159.859C160.094 12.2344 160 12.1406 160.562 12.7969C160.703 12.6562 161.125 12.1875 161.312 12H164.031C164.5 12 164.875 12.0938 165.156 12.2344V12C167.734 12 168.203 11.9062 168.719 12.2344V12H172.375V12.2344C172.938 11.9062 173.312 12 175.422 12V12.2344C175.891 11.9531 176.219 12 177.953 12V3.75C177.953 2.53125 176.969 1.5 175.703 1.5H153.203C151.984 1.5 150.953 2.53125 150.953 3.75V8.90625C151.422 7.875 151.891 6.75 152.031 6.375H153.906C154.094 6.84375 154 6.5625 154.328 7.35938V6.375H156.484C156.625 6.70312 157 7.5 157.141 7.78125C157.422 7.17188 157.609 6.65625 157.75 6.375H162.578H163.094C165.156 6.42188 165.625 6.375 166.141 6.65625V6.375H168.016V6.84375C168.344 6.5625 168.812 6.375 169.422 6.375H170.734C170.734 6.42188 170.828 6.42188 170.828 6.42188H172.375C172.562 6.84375 172.469 6.70312 172.75 7.35938V6.42188H174.812C175.047 6.79688 174.766 6.32812 175.328 7.26562V6.42188H177.203V10.7344H175.234C175 10.3125 175.188 10.5938 174.625 9.70312V10.7344H172.141C171.859 10.0312 172.141 10.6875 171.859 9.98438H170.969C170.734 10.4531 170.828 10.2656 170.641 10.7344H169.375C168.812 10.7344 168.344 10.5938 168.016 10.3125V10.7344H164.875C164.875 10.0781 164.875 9.5625 164.875 9.5625C164.781 9.5625 164.734 9.5625 164.406 9.5625V10.7344H158.078V10.1719C157.938 10.4531 157.938 10.4531 157.844 10.7344H156.438C156.25 10.3125 156.297 10.4062 156.203 10.1719V10.7344H153.719C153.531 10.2656 153.625 10.4531 153.438 9.98438H152.547C152.312 10.4531 152.406 10.2656 152.219 10.7344H151V20.25C151 21.5156 151.984 22.5 153.25 22.5H175.75C176.969 22.5 178 21.5156 178 20.25V16.0312C177.391 16.4062 176.453 16.3125 174.812 16.3125ZM176.5 13.3125H177.953V12.6094H176.406C175.797 12.6094 175.281 12.9375 175.281 13.5938C175.281 15.1406 177.297 14.2031 177.297 14.8594C177.297 15.0938 177.062 15.1875 176.875 15.1875H175.375V15.8438H176.875C177.25 15.8438 177.719 15.7969 177.953 15.4219V14.25C177.438 13.5938 176.078 14.1562 176.078 13.5938C176.078 13.3125 176.312 13.3125 176.5 13.3125ZM173.828 15.1406H172.328V15.8438H173.828C174.531 15.8438 175.094 15.6094 175.094 14.8125C175.094 13.2656 173.078 14.2969 173.078 13.5938C173.078 13.3125 173.312 13.3125 173.5 13.3125H174.906V12.6094H173.359C172.75 12.6094 172.281 12.9375 172.281 13.5938C172.281 15.1406 174.25 14.1562 174.25 14.8594C174.25 15.0938 174.062 15.1406 173.828 15.1406ZM171.859 13.2656V12.6094H169.281V15.8438H171.859V15.1875H170.078V14.5312H171.859V13.875H170.078V13.2656H171.859ZM169.234 8.20312C169.234 8.20312 169.188 8.29688 169.188 8.57812C169.188 8.85938 169.188 8.95312 169.234 8.95312C169.234 8.95312 169.281 8.95312 169.375 8.95312L169.703 8.15625C169.656 8.15625 169.609 8.15625 169.562 8.15625C169.328 8.15625 169.234 8.20312 169.234 8.20312ZM169.422 7.03125C168.344 7.03125 167.828 7.59375 167.828 8.67188C167.828 9.70312 168.297 10.2656 169.375 10.2656H170.266L170.594 9.5625H172.188L172.516 10.2656H174.062V7.82812L175.562 10.2656H176.641V7.03125H175.844V9.28125L174.484 7.03125H173.312V10.0781L172 7.03125H170.828L169.75 9.5625H169.375C168.766 9.5625 168.625 9.1875 168.625 8.625C168.625 7.54688 169.375 7.6875 170.172 7.73438V7.03125H169.422ZM171.391 7.59375L171.906 8.85938H170.875L171.391 7.59375ZM166.656 7.03125V10.2656H167.453V7.03125H166.656Z" fill="white"/>
<path d="M214.5 1.5H187.5C186.656 1.5 186 2.20312 186 3V21C186 21.8438 186.656 22.5 187.5 22.5H214.5C215.297 22.5 216 21.8438 216 21V3C216 2.20312 215.297 1.5 214.5 1.5ZM194.25 15.375V16.125C194.25 16.3594 194.062 16.5 193.875 16.5H193.125C192.891 16.5 192.75 16.3594 192.75 16.125V15.375C192.188 15.375 191.672 15.1875 191.25 14.8594C191.062 14.7188 191.062 14.4375 191.25 14.2969L191.766 13.7812C191.906 13.6406 192.094 13.6406 192.234 13.7344C192.422 13.8281 192.656 13.875 192.844 13.875H194.156C194.484 13.875 194.719 13.6406 194.719 13.2656C194.719 12.9844 194.578 12.75 194.297 12.7031L192.188 12.0469C191.344 11.7656 190.734 10.9688 190.734 10.0312C190.734 8.85938 191.625 7.92188 192.703 7.92188V7.125C192.703 6.9375 192.891 6.75 193.078 6.75H193.828C194.062 6.75 194.203 6.9375 194.203 7.125V7.92188C194.766 7.92188 195.281 8.10938 195.703 8.4375C195.891 8.57812 195.891 8.85938 195.703 9L195.188 9.51562C195.047 9.65625 194.859 9.65625 194.719 9.5625C194.531 9.46875 194.297 9.375 194.109 9.375H192.797C192.469 9.375 192.234 9.65625 192.234 10.0312C192.234 10.3125 192.375 10.5469 192.656 10.5938L194.766 11.25C195.609 11.4844 196.219 12.3281 196.219 13.2656C196.219 14.4375 195.328 15.375 194.25 15.375ZM205.5 14.625C205.5 14.8594 205.312 15 205.125 15H199.875C199.641 15 199.5 14.8594 199.5 14.625V13.875C199.5 13.6875 199.641 13.5 199.875 13.5H205.125C205.312 13.5 205.5 13.6875 205.5 13.875V14.625ZM213 14.625C213 14.8594 212.812 15 212.625 15H208.875C208.641 15 208.5 14.8594 208.5 14.625V13.875C208.5 13.6875 208.641 13.5 208.875 13.5H212.625C212.812 13.5 213 13.6875 213 13.875V14.625ZM213 10.125C213 10.3594 212.812 10.5 212.625 10.5H199.875C199.641 10.5 199.5 10.3594 199.5 10.125V9.375C199.5 9.1875 199.641 9 199.875 9H212.625C212.812 9 213 9.1875 213 9.375V10.125Z" fill="white"/>
<path d="M36.5 28H9.5C8.65625 28 8 28.7031 8 29.5V44.5C8 45.3438 8.65625 46 9.5 46H36.5C37.2969 46 38 45.3438 38 44.5V29.5C38 28.7031 37.2969 28 36.5 28ZM10.25 43.75V40.75C11.8906 40.75 13.25 42.1094 13.25 43.75H10.25ZM10.25 33.25V30.25H13.25C13.25 31.9375 11.8906 33.25 10.25 33.25ZM23 41.5C20.8906 41.5 19.25 39.5312 19.25 37C19.25 34.5156 20.8906 32.5 23 32.5C25.0625 32.5 26.75 34.5156 26.75 37C26.75 39.5312 25.0625 41.5 23 41.5ZM35.75 43.75H32.75C32.75 42.1094 34.0625 40.75 35.75 40.75V43.75ZM35.75 33.25C34.0625 33.25 32.75 31.9375 32.75 30.25H35.75V33.25Z" fill="white"/>
</svg>
